<?xml version="1.0" encoding="UTF-8"?>
<svg width="24px" height="23px" viewBox="0 0 24 23" version="1.1" xmlns="http://www.w3.org/2000/svg" xmlns:xlink="http://www.w3.org/1999/xlink">
    <!-- Generator: Sketch 61.2 (89653) - https://sketch.com -->
    <title>Ig Dark</title>
    <desc>Created with Sketch.</desc>
    <g id="Wireframes-Copy" stroke="none" stroke-width="1" fill="none" fill-rule="evenodd">
        <g id="Homepage" transform="translate(-1411.000000, -8098.000000)" fill="#000000">
            <g id="Group-21" transform="translate(289.000000, 7912.000000)">
                <g id="Group-14" transform="translate(1021.000000, 0.000000)">
                    <g id="Group-13" transform="translate(0.000000, 186.000000)">
                        <path d="M117.119994,0 C121.026763,0 124.206731,3.11877134 124.305152,7.00200306 L124.3075,7.18748726 L124.3075,15.8124942 C124.3075,19.7194517 121.188574,22.8992376 117.305472,22.9976521 L117.119994,23 L108.494987,23 C104.587589,23 101.408044,19.8812602 101.309637,15.9979807 L101.307289,15.8124942 L101.307289,7.18748726 C101.307289,3.28058013 104.425782,0.100763371 108.30948,0.00234793247 L108.494987,0 L117.119994,0 Z M117.119994,2.15625238 L108.494987,2.15625238 C105.772643,2.15625238 103.54907,4.32877978 103.466131,7.03101317 L103.463733,7.18748726 L103.463733,15.8124942 C103.463733,18.5345247 105.63594,20.7583989 108.338494,20.8413496 L108.494987,20.8437483 L117.119994,20.8437483 C119.841711,20.8437483 122.065887,18.6712332 122.148849,15.9689701 L122.151248,15.8124942 L122.151248,7.18748726 C122.151248,4.46548811 119.978425,2.24160223 117.276452,2.15865104 L117.119994,2.15625238 Z M112.80749,5.75000527 C115.982771,5.75000527 118.557486,8.32458262 118.557486,11.4999907 C118.557486,14.6754627 115.982771,17.2500053 112.80749,17.2500053 C109.631571,17.2500053 107.057486,14.6754627 107.057486,11.4999907 C107.057486,8.32458262 109.631571,5.75000527 112.80749,5.75000527 Z M112.80749,7.90623784 C110.826294,7.90623784 109.213737,9.51770858 109.213737,11.4999907 C109.213737,13.4808673 110.826294,15.0937436 112.80749,15.0937436 C114.788047,15.0937436 116.401243,13.4808673 116.401243,11.4999907 C116.401243,9.51770858 114.788047,7.90623784 112.80749,7.90623784 Z M118.988745,4.55257958 C119.41169,4.55257958 119.754774,4.89561208 119.754774,5.31877409 C119.754774,5.74191054 119.41169,6.08495582 118.988745,6.08495582 C118.565162,6.08495582 118.222078,5.74191054 118.222078,5.31877409 C118.222078,4.89561208 118.565162,4.55257958 118.988745,4.55257958 Z" id="Ig-Dark"></path>
                    </g>
                </g>
            </g>
        </g>
    </g>
</svg>