<?xml version="1.0" encoding="UTF-8"?>
<svg width="29px" height="23px" viewBox="0 0 29 23" version="1.1" xmlns="http://www.w3.org/2000/svg" xmlns:xlink="http://www.w3.org/1999/xlink">
    <!-- Generator: Sketch 61.2 (89653) - https://sketch.com -->
    <title>Tw Dark</title>
    <desc>Created with Sketch.</desc>
    <g id="Wireframes-Copy" stroke="none" stroke-width="1" fill="none" fill-rule="evenodd">
        <g id="Homepage" transform="translate(-1358.000000, -8098.000000)" fill="#000000" fill-rule="nonzero">
            <g id="Group-21" transform="translate(289.000000, 7912.000000)">
                <g id="Group-14" transform="translate(1021.000000, 0.000000)">
                    <g id="Group-13" transform="translate(0.000000, 186.000000)">
                        <path d="M76.3072894,2.72285144 C75.2550386,3.18462154 74.1331488,3.49069428 72.9639812,3.63931274 C74.1670099,2.92100299 75.085094,1.79223236 75.5169832,0.43169182 C74.3950934,1.10046208 73.1562869,1.57285052 71.8369803,1.83646267 C70.7713127,0.702382871 69.2533115,0 67.5973102,0 C64.3849743,0 61.7981111,2.60785135 61.7981111,5.80485393 C61.7981111,6.26486707 61.8370833,6.70717021 61.9322778,7.12826221 C57.1080239,6.89295925 52.838965,4.58054377 49.9709904,1.05800149 C49.4701011,1.92669302 49.176212,2.92100299 49.176212,3.99138552 C49.176212,6.00126131 50.2112128,7.7828683 51.7541307,8.81429135 C50.8219911,8.79659411 49.9071015,8.52596056 49.1321286,8.09956577 C49.1321286,8.11726301 49.1321286,8.14026303 49.1321286,8.16326305 C49.1321286,10.9833848 51.1439914,13.3258728 53.7819657,13.8654788 C53.3091876,13.9945983 52.7942427,14.0565706 52.2601312,14.0565706 C51.8882975,14.0565706 51.5132694,14.0352956 51.1612414,13.9574788 C51.9132142,16.2556918 54.0471048,17.9452987 56.5841346,18.0001793 C54.6099664,19.5446944 52.1029644,20.4753007 49.3889622,20.4753007 C48.9129896,20.4753007 48.4561836,20.4540896 48.0000166,20.3956951 C50.5702687,22.0534853 53.6171322,23 56.9023016,23 C67.5819768,23 73.4201482,14.1538734 73.4201482,6.4859867 C73.4201482,6.2294726 73.4112037,5.98177518 73.3990648,5.73585387 C74.5509824,4.91846516 75.518261,3.89761572 76.3072894,2.72285144 Z" id="Tw-Dark"></path>
                    </g>
                </g>
            </g>
        </g>
    </g>
</svg>